<svg xmlns="http://www.w3.org/2000/svg" viewBox="0 0 207.5 207.5">
  <defs>
    <style>
      .cls-1,.cls-4{fill:none;}.cls-1,.cls-2,.cls-3,.cls-4{stroke:#000;stroke-miterlimit:10;}.cls-2,.cls-3{fill:#fff;}.cls-2{stroke-width:2px;}.cls-3,.cls-4{stroke-linecap:round;stroke-width:3px;}
    </style>
  </defs>
  <title>Asset 13</title>
  <g id="Layer_2" data-name="Layer 2">
    <g id="Layer_1-2" data-name="Layer 1">
      <path class="cls-2"
        d="M103.4,118C128,61.42,142,92.86,161,77.77c-1.28,12.39-4.69,25.81-13.42,34-2.07,6.82-5.11,7.33-8.39,6.29-1.78,5.86-5.08,6.08-8.39,6.29-2.51,4.6-5.07,6.15-7.83,3.77-2.32,2.86-4.93,2.77-7.83,0-2.11,2.13-4.56.6-7.27-3.77C106.22,124.1,104.76,121.56,103.4,118Z" />
      <path class="cls-2"
        d="M103.6,118C79,61.42,65,92.86,46,77.77c1.28,12.39,4.69,25.81,13.42,34,2.07,6.82,5.11,7.33,8.39,6.29,1.78,5.86,5.08,6.08,8.39,6.29,2.51,4.6,5.07,6.15,7.83,3.77,2.32,2.86,4.93,2.77,7.83,0,2.11,2.13,4.56.6,7.27-3.77C100.78,124.1,102.24,121.56,103.6,118Z" />
      <g id="_1" data-name="1">
        <circle class="cls-3" cx="103.5" cy="65" r="25" />
        <line class="cls-4" x1="103.5" y1="90" x2="103.5" y2="156" />
        <line class="cls-4" x1="103.5" y1="153" x2="69.5" y2="203" />
        <line class="cls-4" x1="103.5" y1="153" x2="137.5" y2="203" />
        <polyline class="cls-4" points="103.5 90 74.5 121 68.5 114" />
        <polyline class="cls-4" points="103.5 90 132.5 121 137.5 114" />
      </g>
      <path class="cls-4" d="M68.85,123" />
    </g>
  </g>
</svg>