<svg height="512pt" viewBox="0 -35 512.00075 512" width="512pt" xmlns="http://www.w3.org/2000/svg"><path d="m244.921875 434.21875-149.636719-149.632812c-11.632812-11.632813-11.632812-30.496094 0-42.128907l216.230469-216.226562c11.632813-11.632813 30.492187-11.632813 42.125 0l149.636719 149.632812c11.632812 11.632813 11.632812 30.496094 0 42.128907l-216.230469 216.226562c-11.632813 11.632812-30.492187 11.632812-42.125 0zm0 0" fill="#fcf2d0"/><path d="m304.382812 33.359375-209.097656 209.097656c-11.632812 11.632813-11.632812 30.496094 0 42.125l149.636719 149.636719c11.632813 11.632812 30.492187 11.632812 42.125 0l59.632813-59.632812c-74.988282-73.796876-59.003907-247.113282-42.296876-341.226563zm0 0" fill="#f6e3a3"/><path d="m265.984375 390.175781c-5.917969 0-11.476563-2.300781-15.660156-6.484375l-104.507813-104.511718c-8.636718-8.632813-8.636718-22.683594 0-31.316407l171.101563-171.105469c4.183593-4.179687 9.742187-6.484374 15.660156-6.484374 5.914063 0 11.476563 2.304687 15.660156 6.484374l104.507813 104.507813c4.183594 4.183594 6.484375 9.746094 6.484375 15.660156 0 5.917969-2.300781 11.480469-6.484375 15.660157l-171.101563 171.101562c-4.183593 4.183594-9.746093 6.488281-15.660156 6.488281zm66.59375-304.898437c-1.832031 0-3.660156.695312-5.054687 2.089844l-171.101563 171.101562c-2.785156 2.785156-2.785156 7.320312 0 10.105469l104.507813 104.507812c2.785156 2.789063 7.320312 2.789063 10.105468 0l171.105469-171.101562c2.785156-2.785157 2.785156-7.320313 0-10.105469l-104.511719-104.507812c-1.390625-1.394532-3.222656-2.089844-5.050781-2.089844zm0 0" fill="#4e5660"/><path d="m273.992188 192.351562c10.167968-10.167968 26.652343-10.167968 36.820312 0 5.164062 5.164063 7.699219 11.953126 7.617188 18.722657 6.765624-.082031 13.558593 2.453125 18.722656 7.617187 10.167968 10.167969 10.167968 26.652344 0 36.820313-13.351563 13.355469-42.882813 16.433593-62.9375 7.792969-3.597656-1.550782-6.464844-4.417969-8.015625-8.015626-8.640625-20.054687-5.5625-49.582031 7.792969-62.9375zm0 0" fill="#4e5660"/><path d="m290.414062 184.820312c-5.984374.457032-11.84375 2.953126-16.421874 7.53125-13.355469 13.355469-16.433594 42.882813-7.792969 62.9375 1.550781 3.597657 4.417969 6.464844 8.015625 8.015626 6.976562 3.007812 15.101562 4.589843 23.289062 4.820312-4.890625-26.625-6.941406-55.015625-7.089844-83.304688zm0 0" fill="#383c43"/><path d="m321.363281 36.085938c3.097657-3.09375 8.117188-3.09375 11.214844 0 1.574219 1.574218 2.34375 3.644531 2.320313 5.703124 2.0625-.023437 4.128906.75 5.703124 2.324219 3.097657 3.09375 3.097657 8.117188 0 11.214844-4.066406 4.066406-13.0625 5.003906-19.171874 2.375-1.09375-.472656-1.96875-1.347656-2.441407-2.445313-2.632812-6.109374-1.691406-15.101562 2.375-19.171874zm0 0" fill="#4e5660"/><path d="m277.199219 424.363281c-3.097657 3.09375-8.121094 3.09375-11.21875 0-1.570313-1.574219-2.34375-3.644531-2.320313-5.703125-2.058594.023438-4.128906-.75-5.703125-2.320312-3.097656-3.097656-3.097656-8.121094 0-11.21875 4.070313-4.066406 13.0625-5.003906 19.171875-2.371094 1.097656.46875 1.972656 1.34375 2.441406 2.441406 2.632813 6.105469 1.695313 15.101563-2.371093 19.171875zm0 0" fill="#383c43"/><path d="m241.402344 365.371094h-211.613282c-16.453124 0-29.789062-13.335938-29.789062-29.789063v-305.792969c0-16.453124 13.335938-29.789062 29.789062-29.789062h211.613282c16.453125 0 29.789062 13.335938 29.789062 29.789062v305.792969c0 16.453125-13.335937 29.789063-29.789062 29.789063zm0 0" fill="#fcf2d0"/><path d="m29.789062 0c-16.453124 0-29.789062 13.335938-29.789062 29.789062v305.792969c0 16.449219 13.335938 29.789063 29.789062 29.789063h122.773438c-70.902344-71.234375-84.082031-251.609375-61.039062-365.371094zm0 0" fill="#f6e3a3"/><g fill="#e26e7e"><path d="m209.496094 325.820312h-147.800782c-12.210937 0-22.144531-9.9375-22.144531-22.148437v-241.972656c0-12.210938 9.933594-22.148438 22.144531-22.148438h147.796876c12.210937 0 22.148437 9.9375 22.148437 22.148438v241.972656c0 12.210937-9.933594 22.148437-22.144531 22.148437zm-147.800782-271.269531c-3.9375 0-7.144531 3.207031-7.144531 7.148438v241.972656c0 3.941406 3.207031 7.148437 7.144531 7.148437h147.796876c3.941406 0 7.148437-3.207031 7.148437-7.148437v-241.972656c0-3.941407-3.207031-7.148438-7.148437-7.148438zm0 0"/><path d="m126.878906 136.070312-25.972656 41.105469c-2.125 3.367188-2.125 7.652344 0 11.015625l25.972656 41.109375c4.046875 6.40625 13.386719 6.40625 17.433594 0l25.972656-41.109375c2.125-3.363281 2.125-7.648437 0-11.015625l-25.972656-41.105469c-4.046875-6.40625-13.386719-6.40625-17.433594 0zm0 0"/><path d="m24.269531 16.132812-9.738281 15.414063c-.796875 1.261719-.796875 2.871094 0 4.128906l9.738281 15.414063c1.519531 2.402344 5.019531 2.402344 6.539063 0l9.738281-15.414063c.796875-1.257812.796875-2.867187 0-4.128906l-9.738281-15.414063c-1.519532-2.402343-5.019532-2.402343-6.539063 0zm0 0"/><path d="m246.921875 349.238281 9.738281-15.414062c.796875-1.261719.796875-2.871094 0-4.132813l-9.738281-15.414062c-1.519531-2.398438-5.019531-2.398438-6.539063 0l-9.738281 15.414062c-.796875 1.261719-.796875 2.867188 0 4.132813l9.738281 15.414062c1.519532 2.398438 5.019532 2.398438 6.539063 0zm0 0"/></g><path d="m101.769531 111.09375c0-8.695312-8.851562-15.75-19.777343-15.75-10.921876 0-19.777344 7.054688-19.777344 15.75 0 8.699219 8.855468 15.75 19.777344 15.75 10.925781 0 19.777343-7.050781 19.777343-15.75zm0 0" fill="#eda1ab"/><path d="m208.976562 111.09375c0-8.695312-8.855468-15.75-19.777343-15.75s-19.777344 7.054688-19.777344 15.75c0 8.699219 8.855469 15.75 19.777344 15.75s19.777343-7.050781 19.777343-15.75zm0 0" fill="#eda1ab"/><path d="m93.519531 102.882812c-4.140625 0-7.5-3.359374-7.5-7.5v-6.984374c0-4.140626 3.359375-7.5 7.5-7.5s7.5 3.359374 7.5 7.5v6.984374c0 4.140626-3.359375 7.5-7.5 7.5zm0 0" fill="#4e5660"/><path d="m177.671875 102.882812c-4.140625 0-7.5-3.359374-7.5-7.5v-6.984374c0-4.140626 3.359375-7.5 7.5-7.5s7.5 3.359374 7.5 7.5v6.984374c0 4.140626-3.359375 7.5-7.5 7.5zm0 0" fill="#4e5660"/><path d="m135.597656 108.246094c-6.421875 0-12.523437-2.78125-16.75-7.625-2.71875-3.121094-2.394531-7.859375.726563-10.582032 3.121093-2.722656 7.859375-2.398437 10.582031.726563 1.375 1.578125 3.355469 2.480469 5.4375 2.480469s4.066406-.902344 5.441406-2.480469c2.71875-3.125 7.457032-3.449219 10.582032-.726563 3.121093 2.722657 3.445312 7.460938.726562 10.582032-4.226562 4.847656-10.328125 7.625-16.746094 7.625zm0 0" fill="#4e5660"/><path d="m166.222656 287.25c-1.917968 0-3.839844-.730469-5.300781-2.195312-2.929687-2.929688-2.929687-7.675782 0-10.605469l8.160156-8.164063c2.929688-2.929687 7.679688-2.929687 10.605469 0 2.929688 2.929688 2.929688 7.675782 0 10.605469l-8.160156 8.164063c-1.464844 1.464843-3.382813 2.195312-5.304688 2.195312zm0 0" fill="#f6e3a3"/><path d="m396.496094 207.171875c-4.144532 0-7.5-3.359375-7.5-7.5v-8.820313c0-4.140624 3.355468-7.5 7.5-7.5 4.144531 0 7.5 3.359376 7.5 7.5v8.820313c0 4.140625-3.355469 7.5-7.5 7.5zm0 0" fill="#f6e3a3"/><path d="m297.503906 319.976562c-4.140625 0-7.5-3.355468-7.5-7.5v-14.40625c0-4.140624 3.359375-7.5 7.5-7.5 4.144532 0 7.5 3.359376 7.5 7.5v14.40625c0 4.144532-3.355468 7.5-7.5 7.5zm0 0" fill="#fcf2d0"/></svg>